<mxfile host="app.diagrams.net" modified="2022-06-27T06:54:08.613Z" agent="5.0 (Macintosh; Intel Mac OS X 10_15_7) AppleWebKit/537.36 (KHTML, like Gecko) Chrome/102.0.5005.61 Safari/537.36" etag="DoiM4zVwBmP-7VplGFcL" version="20.0.1" type="github" pages="2">
  <diagram id="jbedsdY1WkJxPvWj1WqZ" name="Page-1">
    <mxGraphModel dx="946" dy="614" grid="1" gridSize="10" guides="1" tooltips="1" connect="1" arrows="1" fold="1" page="1" pageScale="1" pageWidth="827" pageHeight="1169" math="0" shadow="0">
      <root>
        <mxCell id="0" />
        <mxCell id="1" parent="0" />
        <mxCell id="STmopLQCMAigKz3BWEIJ-32" value="" style="rounded=0;whiteSpace=wrap;html=1;shadow=0;sketch=1;" vertex="1" parent="1">
          <mxGeometry x="990" y="180" width="200" height="140" as="geometry" />
        </mxCell>
        <mxCell id="STmopLQCMAigKz3BWEIJ-4" style="edgeStyle=orthogonalEdgeStyle;rounded=1;sketch=1;orthogonalLoop=1;jettySize=auto;html=1;" edge="1" parent="1" source="STmopLQCMAigKz3BWEIJ-2" target="STmopLQCMAigKz3BWEIJ-3">
          <mxGeometry relative="1" as="geometry" />
        </mxCell>
        <mxCell id="STmopLQCMAigKz3BWEIJ-2" value="listenToAllSupportedEvents" style="rounded=1;whiteSpace=wrap;html=1;sketch=1;shadow=1;" vertex="1" parent="1">
          <mxGeometry x="40" y="40" width="160" height="30" as="geometry" />
        </mxCell>
        <mxCell id="STmopLQCMAigKz3BWEIJ-6" style="edgeStyle=orthogonalEdgeStyle;rounded=1;sketch=1;orthogonalLoop=1;jettySize=auto;html=1;" edge="1" parent="1" source="STmopLQCMAigKz3BWEIJ-3" target="STmopLQCMAigKz3BWEIJ-5">
          <mxGeometry relative="1" as="geometry" />
        </mxCell>
        <mxCell id="STmopLQCMAigKz3BWEIJ-3" value="listenToNativeEvent" style="rounded=0;whiteSpace=wrap;html=1;shadow=0;sketch=1;" vertex="1" parent="1">
          <mxGeometry x="40" y="120" width="160" height="30" as="geometry" />
        </mxCell>
        <mxCell id="STmopLQCMAigKz3BWEIJ-10" style="edgeStyle=orthogonalEdgeStyle;rounded=1;sketch=1;orthogonalLoop=1;jettySize=auto;html=1;entryX=0;entryY=0.5;entryDx=0;entryDy=0;" edge="1" parent="1" source="STmopLQCMAigKz3BWEIJ-5" target="STmopLQCMAigKz3BWEIJ-9">
          <mxGeometry relative="1" as="geometry" />
        </mxCell>
        <mxCell id="STmopLQCMAigKz3BWEIJ-20" value="创建listener" style="edgeLabel;html=1;align=center;verticalAlign=middle;resizable=0;points=[];" vertex="1" connectable="0" parent="STmopLQCMAigKz3BWEIJ-10">
          <mxGeometry x="0.5528" y="1" relative="1" as="geometry">
            <mxPoint x="-10" y="1" as="offset" />
          </mxGeometry>
        </mxCell>
        <mxCell id="STmopLQCMAigKz3BWEIJ-11" style="edgeStyle=orthogonalEdgeStyle;rounded=1;sketch=1;orthogonalLoop=1;jettySize=auto;html=1;entryX=0;entryY=0.5;entryDx=0;entryDy=0;" edge="1" parent="1" source="STmopLQCMAigKz3BWEIJ-5" target="STmopLQCMAigKz3BWEIJ-8">
          <mxGeometry relative="1" as="geometry" />
        </mxCell>
        <mxCell id="STmopLQCMAigKz3BWEIJ-22" value="是否支持passive" style="edgeLabel;html=1;align=center;verticalAlign=middle;resizable=0;points=[];" vertex="1" connectable="0" parent="STmopLQCMAigKz3BWEIJ-11">
          <mxGeometry x="0.4791" y="3" relative="1" as="geometry">
            <mxPoint y="1" as="offset" />
          </mxGeometry>
        </mxCell>
        <mxCell id="STmopLQCMAigKz3BWEIJ-18" style="edgeStyle=orthogonalEdgeStyle;rounded=1;sketch=1;orthogonalLoop=1;jettySize=auto;html=1;entryX=0;entryY=0.5;entryDx=0;entryDy=0;" edge="1" parent="1" source="STmopLQCMAigKz3BWEIJ-5" target="STmopLQCMAigKz3BWEIJ-13">
          <mxGeometry relative="1" as="geometry" />
        </mxCell>
        <mxCell id="STmopLQCMAigKz3BWEIJ-23" value="事件绑定" style="edgeLabel;html=1;align=center;verticalAlign=middle;resizable=0;points=[];" vertex="1" connectable="0" parent="STmopLQCMAigKz3BWEIJ-18">
          <mxGeometry x="0.557" y="-1" relative="1" as="geometry">
            <mxPoint x="12" y="-1" as="offset" />
          </mxGeometry>
        </mxCell>
        <mxCell id="STmopLQCMAigKz3BWEIJ-5" value="addTrappedEventListener" style="rounded=0;whiteSpace=wrap;html=1;shadow=0;sketch=1;" vertex="1" parent="1">
          <mxGeometry x="40" y="200" width="160" height="30" as="geometry" />
        </mxCell>
        <mxCell id="STmopLQCMAigKz3BWEIJ-8" value="passiveBrowserEventsSupported" style="rounded=1;whiteSpace=wrap;html=1;shadow=0;sketch=1;" vertex="1" parent="1">
          <mxGeometry x="520" y="205" width="220" height="25" as="geometry" />
        </mxCell>
        <mxCell id="STmopLQCMAigKz3BWEIJ-25" style="edgeStyle=orthogonalEdgeStyle;rounded=1;sketch=1;orthogonalLoop=1;jettySize=auto;html=1;" edge="1" parent="1" source="STmopLQCMAigKz3BWEIJ-9" target="STmopLQCMAigKz3BWEIJ-24">
          <mxGeometry relative="1" as="geometry">
            <Array as="points">
              <mxPoint x="750" y="133" />
              <mxPoint x="750" y="90" />
            </Array>
          </mxGeometry>
        </mxCell>
        <mxCell id="STmopLQCMAigKz3BWEIJ-28" value="获取优先级" style="edgeLabel;html=1;align=center;verticalAlign=middle;resizable=0;points=[];" vertex="1" connectable="0" parent="STmopLQCMAigKz3BWEIJ-25">
          <mxGeometry x="0.032" y="1" relative="1" as="geometry">
            <mxPoint x="52" y="1" as="offset" />
          </mxGeometry>
        </mxCell>
        <mxCell id="STmopLQCMAigKz3BWEIJ-33" style="edgeStyle=orthogonalEdgeStyle;rounded=1;sketch=1;orthogonalLoop=1;jettySize=auto;html=1;entryX=0;entryY=0.5;entryDx=0;entryDy=0;" edge="1" parent="1" source="STmopLQCMAigKz3BWEIJ-9" target="STmopLQCMAigKz3BWEIJ-32">
          <mxGeometry relative="1" as="geometry" />
        </mxCell>
        <mxCell id="STmopLQCMAigKz3BWEIJ-9" value="createEventListenerWrapperWithPriority" style="rounded=1;whiteSpace=wrap;html=1;shadow=0;sketch=1;" vertex="1" parent="1">
          <mxGeometry x="520" y="120" width="220" height="25" as="geometry" />
        </mxCell>
        <mxCell id="STmopLQCMAigKz3BWEIJ-13" value="" style="rounded=0;whiteSpace=wrap;html=1;shadow=0;sketch=1;" vertex="1" parent="1">
          <mxGeometry x="520" y="290" width="300" height="220" as="geometry" />
        </mxCell>
        <mxCell id="STmopLQCMAigKz3BWEIJ-14" value="addEventCaptureListenerWithPassiveFlag" style="rounded=1;whiteSpace=wrap;html=1;shadow=0;sketch=1;" vertex="1" parent="1">
          <mxGeometry x="550" y="310" width="243" height="30" as="geometry" />
        </mxCell>
        <mxCell id="STmopLQCMAigKz3BWEIJ-15" value="addEventCaptureListener" style="rounded=1;whiteSpace=wrap;html=1;shadow=0;sketch=1;" vertex="1" parent="1">
          <mxGeometry x="550" y="360" width="243" height="30" as="geometry" />
        </mxCell>
        <mxCell id="STmopLQCMAigKz3BWEIJ-16" value="addEventBubbleListenerWithPassiveFlag" style="rounded=1;whiteSpace=wrap;html=1;shadow=0;sketch=1;" vertex="1" parent="1">
          <mxGeometry x="550" y="410" width="243" height="30" as="geometry" />
        </mxCell>
        <mxCell id="STmopLQCMAigKz3BWEIJ-17" value="addEventBubbleListener" style="rounded=1;whiteSpace=wrap;html=1;shadow=0;sketch=1;" vertex="1" parent="1">
          <mxGeometry x="550" y="460" width="243" height="30" as="geometry" />
        </mxCell>
        <mxCell id="STmopLQCMAigKz3BWEIJ-34" style="edgeStyle=orthogonalEdgeStyle;rounded=1;sketch=1;orthogonalLoop=1;jettySize=auto;html=1;" edge="1" parent="1" source="STmopLQCMAigKz3BWEIJ-24" target="STmopLQCMAigKz3BWEIJ-32">
          <mxGeometry relative="1" as="geometry" />
        </mxCell>
        <mxCell id="STmopLQCMAigKz3BWEIJ-35" value="根据优先级调用不用dispatch" style="edgeLabel;html=1;align=center;verticalAlign=middle;resizable=0;points=[];" vertex="1" connectable="0" parent="STmopLQCMAigKz3BWEIJ-34">
          <mxGeometry x="-0.05" y="-1" relative="1" as="geometry">
            <mxPoint as="offset" />
          </mxGeometry>
        </mxCell>
        <mxCell id="STmopLQCMAigKz3BWEIJ-24" value="getEventPriority" style="rounded=0;whiteSpace=wrap;html=1;shadow=0;sketch=1;" vertex="1" parent="1">
          <mxGeometry x="1015" y="70" width="150" height="30" as="geometry" />
        </mxCell>
        <mxCell id="STmopLQCMAigKz3BWEIJ-38" style="edgeStyle=orthogonalEdgeStyle;rounded=1;sketch=1;orthogonalLoop=1;jettySize=auto;html=1;entryX=0;entryY=0.5;entryDx=0;entryDy=0;" edge="1" parent="1" source="STmopLQCMAigKz3BWEIJ-29" target="STmopLQCMAigKz3BWEIJ-36">
          <mxGeometry relative="1" as="geometry" />
        </mxCell>
        <mxCell id="STmopLQCMAigKz3BWEIJ-29" value="dispatchContinuousEvent" style="rounded=0;whiteSpace=wrap;html=1;shadow=0;sketch=1;" vertex="1" parent="1">
          <mxGeometry x="1010" y="235" width="150" height="30" as="geometry" />
        </mxCell>
        <mxCell id="STmopLQCMAigKz3BWEIJ-43" style="edgeStyle=orthogonalEdgeStyle;rounded=1;sketch=1;orthogonalLoop=1;jettySize=auto;html=1;entryX=0.5;entryY=0;entryDx=0;entryDy=0;" edge="1" parent="1" source="STmopLQCMAigKz3BWEIJ-30" target="STmopLQCMAigKz3BWEIJ-44">
          <mxGeometry relative="1" as="geometry">
            <mxPoint x="1285" y="360" as="targetPoint" />
          </mxGeometry>
        </mxCell>
        <mxCell id="STmopLQCMAigKz3BWEIJ-30" value="dispatchEvent" style="rounded=0;whiteSpace=wrap;html=1;shadow=0;sketch=1;" vertex="1" parent="1">
          <mxGeometry x="1010" y="280" width="550" height="30" as="geometry" />
        </mxCell>
        <mxCell id="STmopLQCMAigKz3BWEIJ-37" style="edgeStyle=orthogonalEdgeStyle;rounded=1;sketch=1;orthogonalLoop=1;jettySize=auto;html=1;" edge="1" parent="1" source="STmopLQCMAigKz3BWEIJ-31" target="STmopLQCMAigKz3BWEIJ-36">
          <mxGeometry relative="1" as="geometry" />
        </mxCell>
        <mxCell id="STmopLQCMAigKz3BWEIJ-39" value="获取更新优先级" style="edgeLabel;html=1;align=center;verticalAlign=middle;resizable=0;points=[];" vertex="1" connectable="0" parent="STmopLQCMAigKz3BWEIJ-37">
          <mxGeometry x="0.456" y="-2" relative="1" as="geometry">
            <mxPoint x="8" y="-2" as="offset" />
          </mxGeometry>
        </mxCell>
        <mxCell id="STmopLQCMAigKz3BWEIJ-31" value="dispatchDiscreteEvent" style="rounded=0;whiteSpace=wrap;html=1;shadow=0;sketch=1;" vertex="1" parent="1">
          <mxGeometry x="1010" y="190" width="150" height="30" as="geometry" />
        </mxCell>
        <mxCell id="STmopLQCMAigKz3BWEIJ-41" style="edgeStyle=orthogonalEdgeStyle;rounded=1;sketch=1;orthogonalLoop=1;jettySize=auto;html=1;exitX=0.5;exitY=1;exitDx=0;exitDy=0;entryX=0.5;entryY=0;entryDx=0;entryDy=0;" edge="1" parent="1" source="STmopLQCMAigKz3BWEIJ-36" target="STmopLQCMAigKz3BWEIJ-40">
          <mxGeometry relative="1" as="geometry" />
        </mxCell>
        <mxCell id="STmopLQCMAigKz3BWEIJ-36" value="getCurrentUpdatePriority" style="rounded=0;whiteSpace=wrap;html=1;shadow=0;sketch=1;" vertex="1" parent="1">
          <mxGeometry x="1410" y="190" width="150" height="30" as="geometry" />
        </mxCell>
        <mxCell id="STmopLQCMAigKz3BWEIJ-42" style="edgeStyle=orthogonalEdgeStyle;rounded=1;sketch=1;orthogonalLoop=1;jettySize=auto;html=1;entryX=0.864;entryY=0;entryDx=0;entryDy=0;entryPerimeter=0;" edge="1" parent="1" source="STmopLQCMAigKz3BWEIJ-40" target="STmopLQCMAigKz3BWEIJ-30">
          <mxGeometry relative="1" as="geometry" />
        </mxCell>
        <mxCell id="STmopLQCMAigKz3BWEIJ-40" value="setCurrentUpdatePriority" style="rounded=0;whiteSpace=wrap;html=1;shadow=0;sketch=1;" vertex="1" parent="1">
          <mxGeometry x="1410" y="230" width="150" height="30" as="geometry" />
        </mxCell>
        <mxCell id="STmopLQCMAigKz3BWEIJ-46" style="edgeStyle=orthogonalEdgeStyle;rounded=1;sketch=1;orthogonalLoop=1;jettySize=auto;html=1;" edge="1" parent="1" source="STmopLQCMAigKz3BWEIJ-44" target="STmopLQCMAigKz3BWEIJ-45">
          <mxGeometry relative="1" as="geometry" />
        </mxCell>
        <mxCell id="STmopLQCMAigKz3BWEIJ-44" value="dispatchEventWithEnableCapturePhaseSelectiveHydrationWithoutDiscreteEventReplay" style="rounded=0;whiteSpace=wrap;html=1;shadow=0;sketch=1;" vertex="1" parent="1">
          <mxGeometry x="1045" y="360" width="480" height="30" as="geometry" />
        </mxCell>
        <mxCell id="STmopLQCMAigKz3BWEIJ-48" style="edgeStyle=orthogonalEdgeStyle;rounded=1;sketch=1;orthogonalLoop=1;jettySize=auto;html=1;" edge="1" parent="1" source="STmopLQCMAigKz3BWEIJ-45" target="STmopLQCMAigKz3BWEIJ-47">
          <mxGeometry relative="1" as="geometry" />
        </mxCell>
        <mxCell id="STmopLQCMAigKz3BWEIJ-45" value="findInstanceBlockingEvent" style="rounded=0;whiteSpace=wrap;html=1;shadow=0;sketch=1;" vertex="1" parent="1">
          <mxGeometry x="1205" y="440" width="160" height="30" as="geometry" />
        </mxCell>
        <mxCell id="STmopLQCMAigKz3BWEIJ-53" style="edgeStyle=orthogonalEdgeStyle;rounded=1;sketch=1;orthogonalLoop=1;jettySize=auto;html=1;exitX=0.5;exitY=1;exitDx=0;exitDy=0;entryX=0.5;entryY=0;entryDx=0;entryDy=0;" edge="1" parent="1" source="STmopLQCMAigKz3BWEIJ-47" target="STmopLQCMAigKz3BWEIJ-49">
          <mxGeometry relative="1" as="geometry" />
        </mxCell>
        <mxCell id="STmopLQCMAigKz3BWEIJ-54" value="是" style="edgeLabel;html=1;align=center;verticalAlign=middle;resizable=0;points=[];" vertex="1" connectable="0" parent="STmopLQCMAigKz3BWEIJ-53">
          <mxGeometry x="-0.0429" y="-3" relative="1" as="geometry">
            <mxPoint as="offset" />
          </mxGeometry>
        </mxCell>
        <mxCell id="STmopLQCMAigKz3BWEIJ-57" style="edgeStyle=orthogonalEdgeStyle;rounded=1;sketch=1;orthogonalLoop=1;jettySize=auto;html=1;entryX=1;entryY=0;entryDx=0;entryDy=0;" edge="1" parent="1" source="STmopLQCMAigKz3BWEIJ-47" target="STmopLQCMAigKz3BWEIJ-55">
          <mxGeometry relative="1" as="geometry">
            <Array as="points">
              <mxPoint x="1285" y="600" />
              <mxPoint x="1324" y="600" />
            </Array>
          </mxGeometry>
        </mxCell>
        <mxCell id="STmopLQCMAigKz3BWEIJ-58" value="否" style="edgeLabel;html=1;align=center;verticalAlign=middle;resizable=0;points=[];" vertex="1" connectable="0" parent="STmopLQCMAigKz3BWEIJ-57">
          <mxGeometry x="-0.2463" relative="1" as="geometry">
            <mxPoint as="offset" />
          </mxGeometry>
        </mxCell>
        <mxCell id="STmopLQCMAigKz3BWEIJ-47" value="blockedOn === null" style="rhombus;whiteSpace=wrap;html=1;rounded=1;shadow=0;sketch=1;" vertex="1" parent="1">
          <mxGeometry x="1220" y="505" width="130" height="80" as="geometry" />
        </mxCell>
        <mxCell id="STmopLQCMAigKz3BWEIJ-56" style="edgeStyle=orthogonalEdgeStyle;rounded=1;sketch=1;orthogonalLoop=1;jettySize=auto;html=1;entryX=0;entryY=0;entryDx=0;entryDy=0;" edge="1" parent="1" source="STmopLQCMAigKz3BWEIJ-49" target="STmopLQCMAigKz3BWEIJ-55">
          <mxGeometry relative="1" as="geometry" />
        </mxCell>
        <mxCell id="STmopLQCMAigKz3BWEIJ-49" value="dispatchEventForPluginEventSystem" style="rounded=0;whiteSpace=wrap;html=1;shadow=0;sketch=1;" vertex="1" parent="1">
          <mxGeometry x="1060" y="620" width="210" height="60" as="geometry" />
        </mxCell>
        <mxCell id="STmopLQCMAigKz3BWEIJ-55" value="queueIfContinuousEvent" style="rhombus;whiteSpace=wrap;html=1;rounded=1;shadow=0;sketch=1;" vertex="1" parent="1">
          <mxGeometry x="1200" y="730" width="165" height="80" as="geometry" />
        </mxCell>
      </root>
    </mxGraphModel>
  </diagram>
  <diagram id="bPGc6aCf9SXFGs3Y_Bin" name="Page-2">
    <mxGraphModel dx="1773" dy="614" grid="1" gridSize="10" guides="1" tooltips="1" connect="1" arrows="1" fold="1" page="1" pageScale="1" pageWidth="827" pageHeight="1169" math="0" shadow="0">
      <root>
        <mxCell id="0" />
        <mxCell id="1" parent="0" />
        <mxCell id="nOvw61bPqp9ibPoA8lCh-1" value="" style="ellipse;whiteSpace=wrap;html=1;rounded=1;shadow=0;sketch=1;" vertex="1" parent="1">
          <mxGeometry x="-10" y="500" width="120" height="80" as="geometry" />
        </mxCell>
      </root>
    </mxGraphModel>
  </diagram>
</mxfile>
